<svg id="visual" viewBox="0 0 900 600" width="900" height="600" xmlns="http://www.w3.org/2000/svg" xmlns:xlink="http://www.w3.org/1999/xlink" version="1.1"><rect x="0" y="0" width="900" height="600" fill="#08295c"></rect><path d="M0 433L18.8 432.2C37.7 431.3 75.3 429.7 112.8 422.5C150.3 415.3 187.7 402.7 225.2 384.5C262.7 366.3 300.3 342.7 337.8 335.2C375.3 327.7 412.7 336.3 450.2 351.3C487.7 366.3 525.3 387.7 562.8 393C600.3 398.3 637.7 387.7 675.2 397C712.7 406.3 750.3 435.7 787.8 442.8C825.3 450 862.7 435 881.3 427.5L900 420L900 601L881.3 601C862.7 601 825.3 601 787.8 601C750.3 601 712.7 601 675.2 601C637.7 601 600.3 601 562.8 601C525.3 601 487.7 601 450.2 601C412.7 601 375.3 601 337.8 601C300.3 601 262.7 601 225.2 601C187.7 601 150.3 601 112.8 601C75.3 601 37.7 601 18.8 601L0 601Z" fill="#c62368"></path><path d="M0 565L18.8 555.3C37.7 545.7 75.3 526.3 112.8 508.3C150.3 490.3 187.7 473.7 225.2 460C262.7 446.3 300.3 435.7 337.8 436C375.3 436.3 412.7 447.7 450.2 471.5C487.7 495.3 525.3 531.7 562.8 541.5C600.3 551.3 637.7 534.7 675.2 505C712.7 475.3 750.3 432.7 787.8 411.3C825.3 390 862.7 390 881.3 390L900 390L900 601L881.3 601C862.7 601 825.3 601 787.8 601C750.3 601 712.7 601 675.2 601C637.7 601 600.3 601 562.8 601C525.3 601 487.7 601 450.2 601C412.7 601 375.3 601 337.8 601C300.3 601 262.7 601 225.2 601C187.7 601 150.3 601 112.8 601C75.3 601 37.7 601 18.8 601L0 601Z" fill="#fa7268"></path></svg>